<svg version="1.1" xmlns="http://www.w3.org/2000/svg" xmlns:xlink="http://www.w3.org/1999/xlink" width="209" height="104">
    <defs>
        <clipPath id="AgKTquGbpvue">
            <path fill="none" stroke="none" d=" M 0 0 L 209 0 L 209 104 L 0 104 L 0 0 Z" />
        </clipPath>
    </defs>
    <g transform="scale(1,1)" clip-path="url(#AgKTquGbpvue)">
        <g transform="translate(-30,-36)">
            <g transform="scale(67,67)">
                <g transform="translate(0.7313432835820896,1.6010447761194028)">
                    <path fill="#de7119" stroke="none" paint-order="stroke fill markers" d=" M 0.777 -0.482 Q 0.777 -0.28500000000000003 0.633 -0.138 Q 0.524 -0.025 0.383 0.01 Q 0.337 0.022 0.295 0.022 Q 0.155 0.022 0.092 -0.093 Q 0.057 -0.158 0.057 -0.246 Q 0.057 -0.448 0.223 -0.602 Q 0.302 -0.674 0.37 -0.7000000000000001 Q 0.382 -0.705 0.387 -0.705 Q 0.398 -0.705 0.398 -0.6980000000000001 Q 0.398 -0.685 0.366 -0.665 Q 0.189 -0.562 0.15 -0.371 Q 0.14200000000000002 -0.329 0.14200000000000002 -0.289 Q 0.14200000000000002 -0.153 0.223 -0.082 Q 0.279 -0.033 0.361 -0.033 Q 0.49 -0.033 0.587 -0.147 Q 0.677 -0.255 0.6900000000000001 -0.401 Q 0.6920000000000001 -0.42 0.6920000000000001 -0.439 Q 0.6920000000000001 -0.5750000000000001 0.614 -0.627 Q 0.579 -0.65 0.534 -0.65 Q 0.489 -0.65 0.456 -0.616 Q 0.451 -0.611 0.446 -0.605 Q 0.40900000000000003 -0.561 0.378 -0.494 Q 0.369 -0.47100000000000003 0.354 -0.46 Q 0.34900000000000003 -0.457 0.342 -0.452 L 0.311 -0.439 L 0.31 -0.438 L 0.309 -0.438 Q 0.304 -0.437 0.3 -0.437 Q 0.29 -0.437 0.29 -0.444 Q 0.29 -0.456 0.317 -0.505 Q 0.35100000000000003 -0.5660000000000001 0.401 -0.616 L 0.44 -0.647 Q 0.522 -0.705 0.6 -0.705 Q 0.715 -0.705 0.757 -0.598 Q 0.777 -0.549 0.777 -0.482 Z" />
                </g>
                <g transform="translate(1.5552362835820897,1.5410447761194028)">
                    <path fill="#116979" stroke="none" paint-order="stroke fill markers" d=" M 0.331 0.24 L 0.331 0.24 Q 0.331 0.25 0.321 0.25 Q 0.309 0.25 0.268 0.209 Q 0.20600000000000002 0.147 0.165 0.062 Q 0.099 -0.074 0.099 -0.25 Q 0.099 -0.419 0.162 -0.555 Q 0.214 -0.666 0.294 -0.733 Q 0.315 -0.75 0.321 -0.75 Q 0.331 -0.75 0.331 -0.74 Q 0.331 -0.735 0.318 -0.723 Q 0.157 -0.559 0.157 -0.25 Q 0.157 0.058 0.314 0.218 Q 0.331 0.23500000000000001 0.331 0.24 Z" />
                </g>
                <g transform="translate(1.9441262835820896,1.5410447761194028)">
                    <path fill="#18b0b0" stroke="none" paint-order="stroke fill markers" d=" M 0.508 -0.272 Q 0.5670000000000001 -0.372 0.652 -0.41600000000000004 Q 0.7020000000000001 -0.442 0.754 -0.442 Q 0.85 -0.442 0.905 -0.353 Q 0.9430000000000001 -0.292 0.9430000000000001 -0.216 Q 0.9430000000000001 -0.112 0.879 -0.045 Q 0.8260000000000001 0.011 0.751 0.011 Q 0.663 0.011 0.581 -0.058 Q 0.559 -0.077 0.514 -0.131 L 0.491 -0.159 Q 0.432 -0.059000000000000004 0.34700000000000003 -0.015 Q 0.297 0.011 0.245 0.011 Q 0.149 0.011 0.094 -0.078 Q 0.056 -0.139 0.056 -0.215 Q 0.056 -0.319 0.12 -0.386 Q 0.17300000000000001 -0.442 0.248 -0.442 Q 0.336 -0.442 0.418 -0.373 Q 0.44 -0.354 0.485 -0.3 L 0.489 -0.295 Q 0.495 -0.28700000000000003 0.508 -0.272 M 0.534 -0.23700000000000002 L 0.63 -0.114 Q 0.631 -0.114 0.631 -0.113 L 0.635 -0.109 Q 0.7010000000000001 -0.037 0.767 -0.037 Q 0.839 -0.037 0.886 -0.10200000000000001 Q 0.921 -0.151 0.921 -0.216 Q 0.921 -0.304 0.868 -0.362 Q 0.8290000000000001 -0.405 0.773 -0.41000000000000003 L 0.761 -0.41000000000000003 Q 0.635 -0.41000000000000003 0.539 -0.246 Q 0.537 -0.242 0.534 -0.23700000000000002 M 0.465 -0.194 L 0.465 -0.194 L 0.369 -0.317 L 0.368 -0.318 L 0.364 -0.322 Q 0.298 -0.394 0.232 -0.394 Q 0.16 -0.394 0.113 -0.329 Q 0.078 -0.28 0.078 -0.215 Q 0.078 -0.127 0.131 -0.069 Q 0.17400000000000002 -0.021 0.23800000000000002 -0.021 Q 0.364 -0.021 0.46 -0.185 Q 0.462 -0.189 0.465 -0.194 Z" />
                </g>
                <g transform="translate(2.9441292835820896,1.5410447761194028)">
                    <path fill="#116979" stroke="none" paint-order="stroke fill markers" d=" M 0.289 -0.25 L 0.289 -0.25 Q 0.289 -0.081 0.226 0.055 Q 0.17400000000000002 0.166 0.094 0.233 Q 0.073 0.25 0.067 0.25 Q 0.057 0.25 0.057 0.24 Q 0.057 0.23500000000000001 0.07 0.223 Q 0.231 0.059000000000000004 0.231 -0.25 Q 0.231 -0.555 0.081 -0.712 L 0.076 -0.717 Q 0.057 -0.735 0.057 -0.74 Q 0.057 -0.75 0.067 -0.75 Q 0.079 -0.75 0.12 -0.709 Q 0.182 -0.647 0.223 -0.562 Q 0.289 -0.426 0.289 -0.25 Z" />
                </g>
            </g>
        </g>
    </g>
</svg>